<svg width="10.000000" height="8.000000" viewBox="0 0 10 8" fill="none" xmlns="http://www.w3.org/2000/svg" xmlns:xlink="http://www.w3.org/1999/xlink">
	<desc>
			Created with Pixso.
	</desc>
	<defs/>
	<path id="Vector" d="M9.66406 2.11985L4.56152 7.63634C4.34473 7.8709 4.05615 8 3.74951 8C3.44238 8 3.1543 7.8709 2.93701 7.63634L0.336426 4.82481C0.119629 4.59025 0 4.27845 0 3.94677C0 3.61499 0.119629 3.30319 0.336426 3.06863C0.553223 2.83406 0.841797 2.70487 1.14844 2.70487C1.45557 2.70487 1.74414 2.83406 1.96094 3.06872L3.74902 5.00201L8.03955 0.363663C8.25635 0.129101 8.54492 0 8.85156 0C9.15869 0 9.44678 0.129101 9.66406 0.363663C10.1118 0.847992 10.1118 1.6357 9.66406 2.11985Z" fill="#FFFFFF" fill-opacity="1.000000" fill-rule="nonzero"/>
</svg>
